<svg width="37" height="37" viewBox="0 0 37 37" fill="none" xmlns="http://www.w3.org/2000/svg">
<circle cx="18.5" cy="18.5" r="18.5" fill="#241E1E"/>
<path d="M23 9H13C10.2386 9 8 11.2386 8 14V24C8 26.7614 10.2386 29 13 29H23C25.7614 29 28 26.7614 28 24V14C28 11.2386 25.7614 9 23 9Z" stroke="white" stroke-width="2" stroke-linecap="round" stroke-linejoin="round"/>
<path d="M22.0002 18.3701C22.1236 19.2023 21.9815 20.0523 21.594 20.7991C21.2065 21.5459 20.5933 22.1515 19.8418 22.5297C19.0903 22.908 18.2386 23.0397 17.408 22.906C16.5773 22.7723 15.81 22.3801 15.215 21.7852C14.6201 21.1903 14.2279 20.4229 14.0943 19.5923C13.9606 18.7616 14.0923 17.91 14.4705 17.1584C14.8488 16.4069 15.4544 15.7938 16.2012 15.4063C16.948 15.0188 17.7979 14.8766 18.6302 15.0001C19.4791 15.1259 20.265 15.5215 20.8719 16.1284C21.4787 16.7352 21.8743 17.5211 22.0002 18.3701Z" stroke="white" stroke-width="2" stroke-linecap="round" stroke-linejoin="round"/>
<path d="M23.5 13.5H23.51" stroke="white" stroke-width="2" stroke-linecap="round" stroke-linejoin="round"/>
</svg>
